<mxfile host="65bd71144e">
    <diagram id="YG7Mp7g4GFFRJLKrn7kD" name="ERD">
        <mxGraphModel dx="910" dy="627" grid="1" gridSize="10" guides="1" tooltips="1" connect="1" arrows="1" fold="1" page="1" pageScale="1" pageWidth="850" pageHeight="1100" math="0" shadow="0">
            <root>
                <mxCell id="30YPt-hrgtb1ijpq8aqN-0"/>
                <mxCell id="30YPt-hrgtb1ijpq8aqN-1" parent="30YPt-hrgtb1ijpq8aqN-0"/>
                <mxCell id="DeDezCakj3QE2Zx5X0VK-0" value="Character" style="swimlane;fontStyle=0;childLayout=stackLayout;horizontal=1;startSize=30;horizontalStack=0;resizeParent=1;resizeParentMax=0;resizeLast=0;collapsible=1;marginBottom=0;" vertex="1" parent="30YPt-hrgtb1ijpq8aqN-1">
                    <mxGeometry x="250" y="55" width="170" height="300" as="geometry"/>
                </mxCell>
                <mxCell id="DeDezCakj3QE2Zx5X0VK-12" value="Name : string" style="text;strokeColor=none;fillColor=none;align=left;verticalAlign=middle;spacingLeft=4;spacingRight=4;overflow=hidden;points=[[0,0.5],[1,0.5]];portConstraint=eastwest;rotatable=0;" vertex="1" parent="DeDezCakj3QE2Zx5X0VK-0">
                    <mxGeometry y="30" width="170" height="30" as="geometry"/>
                </mxCell>
                <mxCell id="DeDezCakj3QE2Zx5X0VK-13" value="Level : integer" style="text;strokeColor=none;fillColor=none;align=left;verticalAlign=middle;spacingLeft=4;spacingRight=4;overflow=hidden;points=[[0,0.5],[1,0.5]];portConstraint=eastwest;rotatable=0;" vertex="1" parent="DeDezCakj3QE2Zx5X0VK-0">
                    <mxGeometry y="60" width="170" height="30" as="geometry"/>
                </mxCell>
                <mxCell id="DeDezCakj3QE2Zx5X0VK-1" value="Ancestry : belongs_to" style="text;strokeColor=none;fillColor=none;align=left;verticalAlign=middle;spacingLeft=4;spacingRight=4;overflow=hidden;points=[[0,0.5],[1,0.5]];portConstraint=eastwest;rotatable=0;" vertex="1" parent="DeDezCakj3QE2Zx5X0VK-0">
                    <mxGeometry y="90" width="170" height="30" as="geometry"/>
                </mxCell>
                <mxCell id="DeDezCakj3QE2Zx5X0VK-2" value="Profession : belongs_to" style="text;strokeColor=none;fillColor=none;align=left;verticalAlign=middle;spacingLeft=4;spacingRight=4;overflow=hidden;points=[[0,0.5],[1,0.5]];portConstraint=eastwest;rotatable=0;" vertex="1" parent="DeDezCakj3QE2Zx5X0VK-0">
                    <mxGeometry y="120" width="170" height="30" as="geometry"/>
                </mxCell>
                <mxCell id="DeDezCakj3QE2Zx5X0VK-4" value="Character_Mind : integer" style="text;strokeColor=none;fillColor=none;align=left;verticalAlign=middle;spacingLeft=4;spacingRight=4;overflow=hidden;points=[[0,0.5],[1,0.5]];portConstraint=eastwest;rotatable=0;" vertex="1" parent="DeDezCakj3QE2Zx5X0VK-0">
                    <mxGeometry y="150" width="170" height="30" as="geometry"/>
                </mxCell>
                <mxCell id="DeDezCakj3QE2Zx5X0VK-5" value="Character_Body : integer" style="text;strokeColor=none;fillColor=none;align=left;verticalAlign=middle;spacingLeft=4;spacingRight=4;overflow=hidden;points=[[0,0.5],[1,0.5]];portConstraint=eastwest;rotatable=0;" vertex="1" parent="DeDezCakj3QE2Zx5X0VK-0">
                    <mxGeometry y="180" width="170" height="30" as="geometry"/>
                </mxCell>
                <mxCell id="DeDezCakj3QE2Zx5X0VK-6" value="Character_Spirit : interger" style="text;strokeColor=none;fillColor=none;align=left;verticalAlign=middle;spacingLeft=4;spacingRight=4;overflow=hidden;points=[[0,0.5],[1,0.5]];portConstraint=eastwest;rotatable=0;" vertex="1" parent="DeDezCakj3QE2Zx5X0VK-0">
                    <mxGeometry y="210" width="170" height="30" as="geometry"/>
                </mxCell>
                <mxCell id="DeDezCakj3QE2Zx5X0VK-7" value="Character_Items : has_many" style="text;strokeColor=none;fillColor=none;align=left;verticalAlign=middle;spacingLeft=4;spacingRight=4;overflow=hidden;points=[[0,0.5],[1,0.5]];portConstraint=eastwest;rotatable=0;" vertex="1" parent="DeDezCakj3QE2Zx5X0VK-0">
                    <mxGeometry y="240" width="170" height="30" as="geometry"/>
                </mxCell>
                <mxCell id="DeDezCakj3QE2Zx5X0VK-39" value="Body : belongs_to" style="text;strokeColor=none;fillColor=none;align=left;verticalAlign=middle;spacingLeft=4;spacingRight=4;overflow=hidden;points=[[0,0.5],[1,0.5]];portConstraint=eastwest;rotatable=0;" vertex="1" parent="DeDezCakj3QE2Zx5X0VK-0">
                    <mxGeometry y="270" width="170" height="30" as="geometry"/>
                </mxCell>
                <mxCell id="DeDezCakj3QE2Zx5X0VK-8" value="Ancestry" style="swimlane;fontStyle=0;childLayout=stackLayout;horizontal=1;startSize=30;horizontalStack=0;resizeParent=1;resizeParentMax=0;resizeLast=0;collapsible=1;marginBottom=0;" vertex="1" parent="30YPt-hrgtb1ijpq8aqN-1">
                    <mxGeometry x="480" y="55" width="140" height="180" as="geometry"/>
                </mxCell>
                <mxCell id="DeDezCakj3QE2Zx5X0VK-9" value="Name" style="text;strokeColor=none;fillColor=none;align=left;verticalAlign=middle;spacingLeft=4;spacingRight=4;overflow=hidden;points=[[0,0.5],[1,0.5]];portConstraint=eastwest;rotatable=0;" vertex="1" parent="DeDezCakj3QE2Zx5X0VK-8">
                    <mxGeometry y="30" width="140" height="30" as="geometry"/>
                </mxCell>
                <mxCell id="DeDezCakj3QE2Zx5X0VK-11" value="Description" style="text;strokeColor=none;fillColor=none;align=left;verticalAlign=middle;spacingLeft=4;spacingRight=4;overflow=hidden;points=[[0,0.5],[1,0.5]];portConstraint=eastwest;rotatable=0;" vertex="1" parent="DeDezCakj3QE2Zx5X0VK-8">
                    <mxGeometry y="60" width="140" height="30" as="geometry"/>
                </mxCell>
                <mxCell id="DeDezCakj3QE2Zx5X0VK-16" value="Ancestry_Body" style="text;strokeColor=none;fillColor=none;align=left;verticalAlign=middle;spacingLeft=4;spacingRight=4;overflow=hidden;points=[[0,0.5],[1,0.5]];portConstraint=eastwest;rotatable=0;" vertex="1" parent="DeDezCakj3QE2Zx5X0VK-8">
                    <mxGeometry y="90" width="140" height="30" as="geometry"/>
                </mxCell>
                <mxCell id="DeDezCakj3QE2Zx5X0VK-15" value="Ancestry_Mind" style="text;strokeColor=none;fillColor=none;align=left;verticalAlign=middle;spacingLeft=4;spacingRight=4;overflow=hidden;points=[[0,0.5],[1,0.5]];portConstraint=eastwest;rotatable=0;" vertex="1" parent="DeDezCakj3QE2Zx5X0VK-8">
                    <mxGeometry y="120" width="140" height="30" as="geometry"/>
                </mxCell>
                <mxCell id="DeDezCakj3QE2Zx5X0VK-17" value="Ancestry_Spirit" style="text;strokeColor=none;fillColor=none;align=left;verticalAlign=middle;spacingLeft=4;spacingRight=4;overflow=hidden;points=[[0,0.5],[1,0.5]];portConstraint=eastwest;rotatable=0;" vertex="1" parent="DeDezCakj3QE2Zx5X0VK-8">
                    <mxGeometry y="150" width="140" height="30" as="geometry"/>
                </mxCell>
                <mxCell id="DeDezCakj3QE2Zx5X0VK-18" value="Profession" style="swimlane;fontStyle=0;childLayout=stackLayout;horizontal=1;startSize=30;horizontalStack=0;resizeParent=1;resizeParentMax=0;resizeLast=0;collapsible=1;marginBottom=0;" vertex="1" parent="30YPt-hrgtb1ijpq8aqN-1">
                    <mxGeometry x="480" y="270" width="140" height="180" as="geometry"/>
                </mxCell>
                <mxCell id="DeDezCakj3QE2Zx5X0VK-19" value="Name" style="text;strokeColor=none;fillColor=none;align=left;verticalAlign=middle;spacingLeft=4;spacingRight=4;overflow=hidden;points=[[0,0.5],[1,0.5]];portConstraint=eastwest;rotatable=0;" vertex="1" parent="DeDezCakj3QE2Zx5X0VK-18">
                    <mxGeometry y="30" width="140" height="30" as="geometry"/>
                </mxCell>
                <mxCell id="DeDezCakj3QE2Zx5X0VK-20" value="Description" style="text;strokeColor=none;fillColor=none;align=left;verticalAlign=middle;spacingLeft=4;spacingRight=4;overflow=hidden;points=[[0,0.5],[1,0.5]];portConstraint=eastwest;rotatable=0;" vertex="1" parent="DeDezCakj3QE2Zx5X0VK-18">
                    <mxGeometry y="60" width="140" height="30" as="geometry"/>
                </mxCell>
                <mxCell id="DeDezCakj3QE2Zx5X0VK-21" value="Profession_Body" style="text;strokeColor=none;fillColor=none;align=left;verticalAlign=middle;spacingLeft=4;spacingRight=4;overflow=hidden;points=[[0,0.5],[1,0.5]];portConstraint=eastwest;rotatable=0;" vertex="1" parent="DeDezCakj3QE2Zx5X0VK-18">
                    <mxGeometry y="90" width="140" height="30" as="geometry"/>
                </mxCell>
                <mxCell id="DeDezCakj3QE2Zx5X0VK-22" value="Profession_Mind" style="text;strokeColor=none;fillColor=none;align=left;verticalAlign=middle;spacingLeft=4;spacingRight=4;overflow=hidden;points=[[0,0.5],[1,0.5]];portConstraint=eastwest;rotatable=0;" vertex="1" parent="DeDezCakj3QE2Zx5X0VK-18">
                    <mxGeometry y="120" width="140" height="30" as="geometry"/>
                </mxCell>
                <mxCell id="DeDezCakj3QE2Zx5X0VK-23" value="Profession_Spirit" style="text;strokeColor=none;fillColor=none;align=left;verticalAlign=middle;spacingLeft=4;spacingRight=4;overflow=hidden;points=[[0,0.5],[1,0.5]];portConstraint=eastwest;rotatable=0;" vertex="1" parent="DeDezCakj3QE2Zx5X0VK-18">
                    <mxGeometry y="150" width="140" height="30" as="geometry"/>
                </mxCell>
                <mxCell id="DeDezCakj3QE2Zx5X0VK-25" value="Items" style="swimlane;fontStyle=0;childLayout=stackLayout;horizontal=1;startSize=30;horizontalStack=0;resizeParent=1;resizeParentMax=0;resizeLast=0;collapsible=1;marginBottom=0;" vertex="1" parent="30YPt-hrgtb1ijpq8aqN-1">
                    <mxGeometry x="480" y="470" width="140" height="210" as="geometry"/>
                </mxCell>
                <mxCell id="DeDezCakj3QE2Zx5X0VK-27" value="Name : string" style="text;strokeColor=none;fillColor=none;align=left;verticalAlign=middle;spacingLeft=4;spacingRight=4;overflow=hidden;points=[[0,0.5],[1,0.5]];portConstraint=eastwest;rotatable=0;" vertex="1" parent="DeDezCakj3QE2Zx5X0VK-25">
                    <mxGeometry y="30" width="140" height="30" as="geometry"/>
                </mxCell>
                <mxCell id="DeDezCakj3QE2Zx5X0VK-28" value="Description : text" style="text;strokeColor=none;fillColor=none;align=left;verticalAlign=middle;spacingLeft=4;spacingRight=4;overflow=hidden;points=[[0,0.5],[1,0.5]];portConstraint=eastwest;rotatable=0;" vertex="1" parent="DeDezCakj3QE2Zx5X0VK-25">
                    <mxGeometry y="60" width="140" height="30" as="geometry"/>
                </mxCell>
                <mxCell id="DeDezCakj3QE2Zx5X0VK-29" value="Attack_bonus : integer" style="text;strokeColor=none;fillColor=none;align=left;verticalAlign=middle;spacingLeft=4;spacingRight=4;overflow=hidden;points=[[0,0.5],[1,0.5]];portConstraint=eastwest;rotatable=0;" vertex="1" parent="DeDezCakj3QE2Zx5X0VK-25">
                    <mxGeometry y="90" width="140" height="30" as="geometry"/>
                </mxCell>
                <mxCell id="DeDezCakj3QE2Zx5X0VK-30" value="Defence_bonus : integer" style="text;strokeColor=none;fillColor=none;align=left;verticalAlign=middle;spacingLeft=4;spacingRight=4;overflow=hidden;points=[[0,0.5],[1,0.5]];portConstraint=eastwest;rotatable=0;" vertex="1" parent="DeDezCakj3QE2Zx5X0VK-25">
                    <mxGeometry y="120" width="140" height="30" as="geometry"/>
                </mxCell>
                <mxCell id="DeDezCakj3QE2Zx5X0VK-33" value="Ancestry : integer" style="text;strokeColor=none;fillColor=none;align=left;verticalAlign=middle;spacingLeft=4;spacingRight=4;overflow=hidden;points=[[0,0.5],[1,0.5]];portConstraint=eastwest;rotatable=0;" vertex="1" parent="DeDezCakj3QE2Zx5X0VK-25">
                    <mxGeometry y="150" width="140" height="30" as="geometry"/>
                </mxCell>
                <mxCell id="DeDezCakj3QE2Zx5X0VK-34" value="Profession : integer" style="text;strokeColor=none;fillColor=none;align=left;verticalAlign=middle;spacingLeft=4;spacingRight=4;overflow=hidden;points=[[0,0.5],[1,0.5]];portConstraint=eastwest;rotatable=0;" vertex="1" parent="DeDezCakj3QE2Zx5X0VK-25">
                    <mxGeometry y="180" width="140" height="30" as="geometry"/>
                </mxCell>
                <mxCell id="DeDezCakj3QE2Zx5X0VK-35" value="Body" style="swimlane;fontStyle=0;childLayout=stackLayout;horizontal=1;startSize=30;horizontalStack=0;resizeParent=1;resizeParentMax=0;resizeLast=0;collapsible=1;marginBottom=0;" vertex="1" parent="30YPt-hrgtb1ijpq8aqN-1">
                    <mxGeometry x="10" y="85" width="140" height="210" as="geometry"/>
                </mxCell>
                <mxCell id="DeDezCakj3QE2Zx5X0VK-36" value="Head " style="text;strokeColor=none;fillColor=none;align=left;verticalAlign=middle;spacingLeft=4;spacingRight=4;overflow=hidden;points=[[0,0.5],[1,0.5]];portConstraint=eastwest;rotatable=0;" vertex="1" parent="DeDezCakj3QE2Zx5X0VK-35">
                    <mxGeometry y="30" width="140" height="30" as="geometry"/>
                </mxCell>
                <mxCell id="DeDezCakj3QE2Zx5X0VK-37" value="Chest" style="text;strokeColor=none;fillColor=none;align=left;verticalAlign=middle;spacingLeft=4;spacingRight=4;overflow=hidden;points=[[0,0.5],[1,0.5]];portConstraint=eastwest;rotatable=0;" vertex="1" parent="DeDezCakj3QE2Zx5X0VK-35">
                    <mxGeometry y="60" width="140" height="30" as="geometry"/>
                </mxCell>
                <mxCell id="DeDezCakj3QE2Zx5X0VK-38" value="Arm_left" style="text;strokeColor=none;fillColor=none;align=left;verticalAlign=middle;spacingLeft=4;spacingRight=4;overflow=hidden;points=[[0,0.5],[1,0.5]];portConstraint=eastwest;rotatable=0;" vertex="1" parent="DeDezCakj3QE2Zx5X0VK-35">
                    <mxGeometry y="90" width="140" height="30" as="geometry"/>
                </mxCell>
                <mxCell id="DeDezCakj3QE2Zx5X0VK-40" value="Arm_right" style="text;strokeColor=none;fillColor=none;align=left;verticalAlign=middle;spacingLeft=4;spacingRight=4;overflow=hidden;points=[[0,0.5],[1,0.5]];portConstraint=eastwest;rotatable=0;" vertex="1" parent="DeDezCakj3QE2Zx5X0VK-35">
                    <mxGeometry y="120" width="140" height="30" as="geometry"/>
                </mxCell>
                <mxCell id="DeDezCakj3QE2Zx5X0VK-41" value="Leg_left" style="text;strokeColor=none;fillColor=none;align=left;verticalAlign=middle;spacingLeft=4;spacingRight=4;overflow=hidden;points=[[0,0.5],[1,0.5]];portConstraint=eastwest;rotatable=0;" vertex="1" parent="DeDezCakj3QE2Zx5X0VK-35">
                    <mxGeometry y="150" width="140" height="30" as="geometry"/>
                </mxCell>
                <mxCell id="DeDezCakj3QE2Zx5X0VK-42" value="Leg_right" style="text;strokeColor=none;fillColor=none;align=left;verticalAlign=middle;spacingLeft=4;spacingRight=4;overflow=hidden;points=[[0,0.5],[1,0.5]];portConstraint=eastwest;rotatable=0;" vertex="1" parent="DeDezCakj3QE2Zx5X0VK-35">
                    <mxGeometry y="180" width="140" height="30" as="geometry"/>
                </mxCell>
                <mxCell id="DeDezCakj3QE2Zx5X0VK-43" style="edgeStyle=none;html=1;exitX=1;exitY=0.5;exitDx=0;exitDy=0;entryX=0;entryY=0.094;entryDx=0;entryDy=0;entryPerimeter=0;" edge="1" parent="30YPt-hrgtb1ijpq8aqN-1" source="DeDezCakj3QE2Zx5X0VK-1" target="DeDezCakj3QE2Zx5X0VK-8">
                    <mxGeometry relative="1" as="geometry"/>
                </mxCell>
                <mxCell id="DeDezCakj3QE2Zx5X0VK-44" style="edgeStyle=none;html=1;exitX=1;exitY=0.5;exitDx=0;exitDy=0;entryX=-0.029;entryY=0.094;entryDx=0;entryDy=0;entryPerimeter=0;" edge="1" parent="30YPt-hrgtb1ijpq8aqN-1" source="DeDezCakj3QE2Zx5X0VK-2" target="DeDezCakj3QE2Zx5X0VK-18">
                    <mxGeometry relative="1" as="geometry"/>
                </mxCell>
                <mxCell id="DeDezCakj3QE2Zx5X0VK-45" value="Character_items" style="swimlane;fontStyle=0;childLayout=stackLayout;horizontal=1;startSize=30;horizontalStack=0;resizeParent=1;resizeParentMax=0;resizeLast=0;collapsible=1;marginBottom=0;" vertex="1" parent="30YPt-hrgtb1ijpq8aqN-1">
                    <mxGeometry x="250" y="470" width="140" height="120" as="geometry"/>
                </mxCell>
                <mxCell id="DeDezCakj3QE2Zx5X0VK-46" value="Character : belongs_to" style="text;strokeColor=none;fillColor=none;align=left;verticalAlign=middle;spacingLeft=4;spacingRight=4;overflow=hidden;points=[[0,0.5],[1,0.5]];portConstraint=eastwest;rotatable=0;" vertex="1" parent="DeDezCakj3QE2Zx5X0VK-45">
                    <mxGeometry y="30" width="140" height="30" as="geometry"/>
                </mxCell>
                <mxCell id="DeDezCakj3QE2Zx5X0VK-47" value="Item : belongs_to" style="text;strokeColor=none;fillColor=none;align=left;verticalAlign=middle;spacingLeft=4;spacingRight=4;overflow=hidden;points=[[0,0.5],[1,0.5]];portConstraint=eastwest;rotatable=0;" vertex="1" parent="DeDezCakj3QE2Zx5X0VK-45">
                    <mxGeometry y="60" width="140" height="30" as="geometry"/>
                </mxCell>
                <mxCell id="DeDezCakj3QE2Zx5X0VK-32" value="Equipped : boolean" style="text;strokeColor=none;fillColor=none;align=left;verticalAlign=middle;spacingLeft=4;spacingRight=4;overflow=hidden;points=[[0,0.5],[1,0.5]];portConstraint=eastwest;rotatable=0;" vertex="1" parent="DeDezCakj3QE2Zx5X0VK-45">
                    <mxGeometry y="90" width="140" height="30" as="geometry"/>
                </mxCell>
                <mxCell id="DeDezCakj3QE2Zx5X0VK-49" style="edgeStyle=none;html=1;exitX=0;exitY=0.5;exitDx=0;exitDy=0;entryX=1.007;entryY=0.067;entryDx=0;entryDy=0;entryPerimeter=0;" edge="1" parent="30YPt-hrgtb1ijpq8aqN-1" source="DeDezCakj3QE2Zx5X0VK-39" target="DeDezCakj3QE2Zx5X0VK-35">
                    <mxGeometry relative="1" as="geometry"/>
                </mxCell>
                <mxCell id="DeDezCakj3QE2Zx5X0VK-50" style="edgeStyle=none;html=1;exitX=1;exitY=0.5;exitDx=0;exitDy=0;entryX=1;entryY=0.5;entryDx=0;entryDy=0;" edge="1" parent="30YPt-hrgtb1ijpq8aqN-1" source="DeDezCakj3QE2Zx5X0VK-7" target="DeDezCakj3QE2Zx5X0VK-46">
                    <mxGeometry relative="1" as="geometry"/>
                </mxCell>
                <mxCell id="DeDezCakj3QE2Zx5X0VK-51" style="edgeStyle=none;html=1;exitX=1;exitY=0.5;exitDx=0;exitDy=0;entryX=-0.007;entryY=0.1;entryDx=0;entryDy=0;entryPerimeter=0;" edge="1" parent="30YPt-hrgtb1ijpq8aqN-1" source="DeDezCakj3QE2Zx5X0VK-47" target="DeDezCakj3QE2Zx5X0VK-25">
                    <mxGeometry relative="1" as="geometry"/>
                </mxCell>
            </root>
        </mxGraphModel>
    </diagram>
</mxfile>